<svg width="58px" height="58px" viewBox="0 0 58 58" version="1.1" xmlns="http://www.w3.org/2000/svg" xmlns:xlink="http://www.w3.org/1999/xlink">
    <g id="Page-1" stroke="none" stroke-width="1" fill="none" fill-rule="evenodd">
        <g id="weather_icons-22" fill="#030840" fill-rule="nonzero">
            <path d="M47,12 C46.492,12 45.888,12.079 45.311,12.184 C43.218,5.012 36.663,0 29,0 C21.336,0 14.781,5.012 12.688,12.184 C12.112,12.079 11.507,12 11,12 C4.935,12 0,16.935 0,23 C0,29.065 4.935,34 11,34 L18,34 L18,50 C18,51.104 18.895,52 20,52 C21.104,52 22,51.104 22,50 L22,34 L36,34 L36,50 C36,51.104 36.895,52 38,52 C39.104,52 40,51.104 40,50 L40,34 L47,34 C53.065,34 58,29.065 58,23 C58,16.935 53.065,12 47,12 Z M47,30 L11,30 C7.141,30 4,26.859 4,23 C4,19.141 7.141,16 11,16 C11.277,16 11.723,16.068 12.193,16.162 L12.193,18 C12.193,19.104 13.089,20 14.193,20 C15.297,20 16.193,19.104 16.193,18 L16.193,14.781 C17.266,8.528 22.629,4 29,4 C35.37,4 40.733,8.528 41.807,14.782 L41.807,18 C41.807,19.104 42.702,20 43.807,20 C44.912,20 45.807,19.104 45.807,18 L45.807,16.163 C46.277,16.069 46.726,16 47,16 C50.859,16 54,19.141 54,23 C54,26.859 50.859,30 47,30 Z" id="Shape"></path>
            <path d="M29,36 C27.895,36 27,36.896 27,38 L27,56 C27,57.104 27.895,58 29,58 C30.104,58 31,57.104 31,56 L31,38 C31,36.896 30.104,36 29,36 Z" id="Path"></path>
        </g>
    </g>
</svg>