<svg width="58px" height="52px" viewBox="0 0 58 52" version="1.1" xmlns="http://www.w3.org/2000/svg" xmlns:xlink="http://www.w3.org/1999/xlink">
    <g id="Page-1" stroke="none" stroke-width="1" fill="none" fill-rule="evenodd">
        <g id="weather_icons-28" fill="#030840" fill-rule="nonzero">
            <path d="M47,12 C46.492,12 45.888,12.079 45.311,12.184 C43.218,5.012 36.663,0 29,0 C21.336,0 14.781,5.012 12.688,12.184 C12.112,12.079 11.507,12 11,12 C4.935,12 0,16.935 0,23 C0,29.065 4.935,34 11,34 L22.263,34 L18.336,39.891 C17.927,40.504 17.889,41.293 18.236,41.944 C18.585,42.594 19.263,43 20,43 L22.263,43 L18.336,48.891 C17.724,49.81 17.972,51.052 18.891,51.664 C19.231,51.892 19.617,52 19.998,52 C20.644,52 21.278,51.687 21.664,51.109 L27.664,42.109 C28.073,41.496 28.111,40.707 27.764,40.056 C27.415,39.406 26.737,39 26,39 L23.737,39 L27.07,34 L32.262,34 L30.335,36.891 C29.926,37.504 29.888,38.293 30.235,38.944 C30.585,39.594 31.263,40 32,40 L34.263,40 L32.336,42.891 C31.724,43.81 31.972,45.052 32.891,45.664 C33.231,45.892 33.617,46 33.998,46 C34.644,46 35.278,45.687 35.664,45.109 L39.664,39.109 C40.073,38.496 40.111,37.707 39.764,37.056 C39.415,36.406 38.737,36 38,36 L35.737,36 L37.07,34 L47,34 C53.065,34 58,29.065 58,23 C58,16.935 53.065,12 47,12 Z M47,30 L11,30 C7.141,30 4,26.859 4,23 C4,19.141 7.141,16 11,16 C11.277,16 11.723,16.068 12.193,16.162 L12.193,18 C12.193,19.104 13.088,20 14.193,20 C15.298,20 16.193,19.104 16.193,18 L16.193,14.781 C17.266,8.528 22.629,4 29,4 C35.37,4 40.733,8.528 41.807,14.782 L41.807,18 C41.807,19.104 42.703,20 43.807,20 C44.911,20 45.807,19.104 45.807,18 L45.807,16.163 C46.277,16.069 46.726,16 47,16 C50.859,16 54,19.141 54,23 C54,26.859 50.859,30 47,30 Z" id="Shape"></path>
        </g>
    </g>
</svg>